Coordinates
version=1
nRows=4
nColumns=114
inDegrees=yes

Units are S.I. units (second, meters, Newtons, ...)
If the header above contains a line with 'inDegrees', this indicates whether rotational values are in degrees (yes) or radians (no).

endheader 
time	pelvis_tilt	pelvis_list	pelvis_rotation	pelvis_tx	pelvis_ty	pelvis_tz	hip_flexion_l	hip_adduction_l	hip_rotation_l	hip_flexion_r	hip_adduction_r	hip_rotation_r	knee_angle_l	knee_angle_r	ankle_angle_l	ankle_angle_r	subtalar_angle_l	subtalar_angle_r	mtp_angle_l	mtp_angle_r	lumbar_extension	lumbar_bending	lumbar_rotation	arm_flex_l	arm_add_l	arm_rot_l	arm_flex_r	arm_add_r	arm_rot_r	elbow_flex_l	elbow_flex_r	pro_sup_l	pro_sup_r	addbrev_l/activation	addlong_l/activation	addmagDist_l/activation	addmagIsch_l/activation	addmagMid_l/activation	addmagProx_l/activation	bflh_l/activation	bfsh_l/activation	edl_l/activation	ehl_l/activation	fdl_l/activation	fhl_l/activation	gaslat_l/activation	gasmed_l/activation	glmax1_l/activation	glmax2_l/activation	glmax3_l/activation	glmed1_l/activation	glmed2_l/activation	glmed3_l/activation	glmin1_l/activation	glmin2_l/activation	glmin3_l/activation	grac_l/activation	iliacus_l/activation	perbrev_l/activation	perlong_l/activation	piri_l/activation	psoas_l/activation	recfem_l/activation	sart_l/activation	semimem_l/activation	semiten_l/activation	soleus_l/activation	tfl_l/activation	tibant_l/activation	tibpost_l/activation	vasint_l/activation	vaslat_l/activation	vasmed_l/activation	addbrev_r/activation	addlong_r/activation	addmagDist_r/activation	addmagIsch_r/activation	addmagMid_r/activation	addmagProx_r/activation	bflh_r/activation	bfsh_r/activation	edl_r/activation	ehl_r/activation	fdl_r/activation	fhl_r/activation	gaslat_r/activation	gasmed_r/activation	glmax1_r/activation	glmax2_r/activation	glmax3_r/activation	glmed1_r/activation	glmed2_r/activation	glmed3_r/activation	glmin1_r/activation	glmin2_r/activation	glmin3_r/activation	grac_r/activation	iliacus_r/activation	perbrev_r/activation	perlong_r/activation	piri_r/activation	psoas_r/activation	recfem_r/activation	sart_r/activation	semimem_r/activation	semiten_r/activation	soleus_r/activation	tfl_r/activation	tibant_r/activation	tibpost_r/activation	vasint_r/activation	vaslat_r/activation	vasmed_r/activation	
          1.13000000	        -13.40343516	         -7.84243799	        -19.45680531	          1.74457825	          0.78030053	          0.54708027	        -29.97315071	        -23.94749882	        -12.60383895	         51.61709674	         16.75318682	         -9.28717470	         26.15801310	         68.59527714	          0.63565615	         26.96209490	          4.09877419	        -23.38948591	          0.15409247	         -9.71879035	         -3.89201247	         11.66029117	         -4.49034278	          0.20422822	        -14.71349097	         17.67151942	          9.26545392	        -17.79121351	         23.28895062	         25.25305837	         34.38721299	         77.24376770	         73.60837518	          0.11100058	          0.17442430	          0.03371932	          0.01417336	          0.15675512	          0.06027220	          0.01198787	          0.11063821	          0.11602283	          0.06597208	          0.02817834	          0.01963689	          0.03482107	          0.05405250	          0.01257771	          0.01136534	          0.01097642	          0.01851376	          0.01327138	          0.01331471	          0.03366026	          0.01587660	          0.03694761	          0.09551445	          0.37797804	          0.07553827	          0.09370396	          0.03447218	          0.25178622	          0.17053008	          0.09453678	          0.01227497	          0.01430289	          0.01066530	          0.09818551	          0.13123516	          0.01491160	          0.01209184	          0.01047447	          0.01133109	          0.01697120	          0.02795573	          0.01761696	          0.15977354	          0.01461837	          0.03210335	          0.11835116	          0.57087749	          0.10092890	          0.07673871	          0.08349519	          0.10430686	          0.23703790	          0.31668938	          0.29057553	          0.40835769	          0.02297691	          0.40383591	          0.27345914	          0.14736413	          0.14511342	          0.16076622	          0.08120302	          0.08095900	          0.08026959	          0.14455556	          0.08827082	          0.22315228	          0.22333797	          0.37650583	          0.57341167	          0.18775114	          0.54088144	          0.17118332	          0.26544203	          0.30807108	          0.18632941	          0.14263043	          0.59729900	          0.15732816	
          1.14000000	        -13.54104442	         -7.92455867	        -19.36056294	          1.74582474	          0.78035855	          0.54609272	        -29.99374686	        -23.92443004	        -12.22215000	         51.70117335	         16.62263500	         -9.58862173	         25.90776484	         68.90506318	          0.53423124	         27.03597327	          3.61031753	        -23.09017244	         -0.04181140	         -9.71932843	         -3.45690917	         11.96905684	         -4.63978353	         -0.04635708	        -14.67856665	         17.84422767	          9.30612799	        -17.93409241	         23.74007763	         25.00053415	         34.03620842	         76.58952536	         73.20006121	          0.09327444	          0.14604364	          0.02832378	          0.01224538	          0.13086060	          0.05070027	          0.01075546	          0.09769830	          0.10777145	          0.06596909	          0.02836944	          0.02253206	          0.05149283	          0.06573585	          0.01626715	          0.01296903	          0.01061834	          0.04950532	          0.02247119	          0.01997019	          0.10106499	          0.02751174	          0.03931177	          0.08044413	          0.31641952	          0.06584882	          0.08302990	          0.03580086	          0.21121533	          0.14245021	          0.16774521	          0.01081267	          0.01253428	          0.01154900	          0.08833355	          0.12469217	          0.01708456	          0.01236220	          0.01086192	          0.01173515	          0.01492575	          0.02584012	          0.01487313	          0.13329054	          0.01244427	          0.02942923	          0.09872537	          0.47579132	          0.08445183	          0.06404170	          0.07278861	          0.09293351	          0.19767379	          0.26405935	          0.36032433	          0.34447301	          0.01928624	          0.80114388	          0.58874107	          0.32899309	          0.13034806	          0.38570693	          0.17523177	          0.06759296	          0.06733300	          0.12049367	          0.07367742	          0.18722905	          0.18621944	          0.31403862	          0.47793815	          0.15652352	          0.45083970	          0.28464237	          0.22347615	          0.25682051	          0.15602586	          0.33863491	          0.82712712	          0.37577833	
          1.15000000	        -13.64223684	         -7.97455626	        -19.27040674	          1.74710640	          0.78010919	          0.54507484	        -29.99652447	        -23.84743000	        -11.81634749	         51.70753239	         16.46062287	         -9.63399211	         25.73228437	         68.89113111	          0.29222400	         27.04382031	          3.04119542	        -22.63563105	         -0.41527088	         -9.83560652	         -3.03029029	         12.22988573	         -4.76918995	         -0.28598950	        -14.68678838	         18.05275739	          9.31506049	        -18.10595379	         24.18942810	         24.79480446	         33.71118012	         76.17003052	         72.91652344	          0.08029190	          0.12427950	          0.02434564	          0.01220096	          0.10997349	          0.04348845	          0.01130825	          0.09576601	          0.09261711	          0.06046935	          0.03166616	          0.02221102	          0.04738022	          0.05959949	          0.01495364	          0.01209510	          0.01062242	          0.04230572	          0.01942370	          0.01747932	          0.08505951	          0.02347274	          0.03758773	          0.07022604	          0.26664862	          0.06120249	          0.07445955	          0.03437633	          0.17858110	          0.11897168	          0.14120062	          0.01186221	          0.01386565	          0.01068677	          0.07376724	          0.10843532	          0.01704752	          0.01136299	          0.01030355	          0.01083279	          0.01554377	          0.02746512	          0.01421001	          0.11441261	          0.01237868	          0.02933219	          0.08235982	          0.39665463	          0.07221887	          0.09418599	          0.06178692	          0.07787165	          0.16481889	          0.22018050	          0.31993305	          0.48693592	          0.01681057	          0.73097771	          0.49122066	          0.27534713	          0.37287210	          0.32332104	          0.14829308	          0.05658810	          0.05634008	          0.11909866	          0.06160970	          0.15640480	          0.15526561	          0.26187196	          0.39837956	          0.13063534	          0.42640074	          0.23740633	          0.18749707	          0.22702468	          0.13026927	          0.28233351	          0.69388300	          0.31325706	
          1.16000000	        -13.67766911	         -7.99709628	        -19.22244108	          1.74824225	          0.77990887	          0.54405132	        -29.98365174	        -23.72393762	        -11.51625710	         51.64423719	         16.30682120	         -9.62513100	         25.67017985	         68.87403848	         -0.04204441	         27.08763372	          2.50501056	        -22.25386587	         -0.82839338	        -10.00666641	         -2.70290668	         12.43030904	         -4.81070618	         -0.52121934	        -14.74068289	         18.22771858	          9.24607295	        -18.28656017	         24.48784731	         24.67716509	         33.48001500	         76.11344326	         72.89595770	          0.07664973	          0.10777992	          0.08336467	          0.02580562	          0.13534399	          0.04012395	          0.01484149	          0.08167346	          0.08012222	          0.05448236	          0.03581591	          0.03230859	          0.04248215	          0.05071762	          0.01445432	          0.01282357	          0.01201021	          0.03602069	          0.01675619	          0.01530643	          0.07145168	          0.01994996	          0.03547027	          0.06403520	          0.22354437	          0.05417408	          0.06709676	          0.03269734	          0.15055736	          0.11902113	          0.11847736	          0.01610449	          0.01824274	          0.01673955	          0.06221049	          0.09136756	          0.02420793	          0.01406974	          0.01108514	          0.01267733	          0.01942155	          0.03146778	          0.03372332	          0.09606155	          0.01709247	          0.03205749	          0.06912613	          0.33065837	          0.11904083	          0.07885971	          0.05222430	          0.06560625	          0.13762016	          0.19273015	          0.27406417	          0.48080262	          0.03186455	          0.70908045	          0.41009277	          0.23050948	          0.31179910	          0.27042898	          0.12544735	          0.04756749	          0.04715477	          0.09928097	          0.13134975	          0.13181086	          0.12947484	          0.21837719	          0.33209294	          0.10899339	          0.35551973	          0.19820927	          0.15677059	          0.18924419	          0.10872315	          0.23531222	          0.57828747	          0.26107193	
